 <svg width="258" height="257" viewBox="0 0 258 257" fill="#212121" xmlns="http://www.w3.org/2000/svg">
                                <path fillRule="evenodd" clipRule="evenodd" d="M128.999 49.4404C128.2 49.4383 127.434 49.12 126.869 48.555C126.304 47.9901 125.986 47.2244 125.984 46.4254V25.1724C125.977 24.7719 126.049 24.374 126.198 24.0019C126.346 23.6298 126.567 23.2909 126.847 23.0051C127.128 22.7193 127.463 22.4923 127.832 22.3373C128.201 22.1824 128.598 22.1025 128.999 22.1025C129.399 22.1025 129.796 22.1824 130.165 22.3373C130.534 22.4923 130.869 22.7193 131.15 23.0051C131.43 23.2909 131.651 23.6298 131.8 24.0019C131.948 24.374 132.02 24.7719 132.013 25.1724V46.4254C132.011 47.2242 131.692 47.9895 131.128 48.5544C130.563 49.1193 129.798 49.4378 128.999 49.4404ZM232.399 131.44H211.148C210.748 131.448 210.35 131.375 209.977 131.227C209.605 131.079 209.266 130.858 208.981 130.577C208.695 130.297 208.468 129.962 208.313 129.592C208.158 129.223 208.078 128.826 208.078 128.426C208.078 128.025 208.158 127.629 208.313 127.259C208.468 126.89 208.695 126.555 208.981 126.275C209.266 125.994 209.605 125.773 209.977 125.625C210.35 125.477 210.748 125.404 211.148 125.411H232.402C232.803 125.404 233.2 125.477 233.573 125.625C233.945 125.773 234.284 125.994 234.569 126.275C234.855 126.555 235.082 126.89 235.237 127.259C235.392 127.629 235.472 128.025 235.472 128.426C235.472 128.826 235.392 129.223 235.237 129.592C235.082 129.962 234.855 130.297 234.569 130.577C234.284 130.858 233.945 131.079 233.573 131.227C233.2 131.375 232.803 131.448 232.402 131.44H232.399ZM128.999 234.84C128.2 234.838 127.434 234.52 126.869 233.955C126.304 233.39 125.986 232.624 125.984 231.825V210.573C125.977 210.173 126.049 209.775 126.198 209.403C126.346 209.031 126.567 208.692 126.847 208.406C127.128 208.12 127.463 207.893 127.832 207.738C128.201 207.583 128.598 207.504 128.999 207.504C129.399 207.504 129.796 207.583 130.165 207.738C130.534 207.893 130.869 208.12 131.15 208.406C131.43 208.692 131.651 209.031 131.8 209.403C131.948 209.775 132.02 210.173 132.013 210.573V231.827C132.011 232.626 131.692 233.392 131.128 233.956C130.563 234.521 129.798 234.84 128.999 234.842V234.84ZM46.999 131.44H25.747C25.3465 131.448 24.9486 131.375 24.5765 131.227C24.2044 131.079 23.8655 130.858 23.5797 130.577C23.2939 130.297 23.0669 129.962 22.9119 129.592C22.7569 129.223 22.6771 128.826 22.6771 128.426C22.6771 128.025 22.7569 127.629 22.9119 127.259C23.0669 126.89 23.2939 126.555 23.5797 126.275C23.8655 125.994 24.2044 125.773 24.5765 125.625C24.9486 125.477 25.3465 125.404 25.747 125.411H47C47.4005 125.404 47.7984 125.477 48.1706 125.625C48.5427 125.773 48.8816 125.994 49.1674 126.275C49.4532 126.555 49.6802 126.89 49.8351 127.259C49.9901 127.629 50.0699 128.025 50.0699 128.426C50.0699 128.826 49.9901 129.223 49.8351 129.592C49.6802 129.962 49.4532 130.297 49.1674 130.577C48.8816 130.858 48.5427 131.079 48.1706 131.227C47.7984 131.375 47.4005 131.448 47 131.44H46.999ZM170.148 60.4404C169.611 60.4525 169.083 60.2943 168.641 59.9884C167.949 59.6008 167.436 58.9586 167.211 58.1985C166.986 57.4383 167.066 56.6203 167.435 55.9184L178.135 37.5284C178.333 37.1919 178.595 36.8977 178.907 36.6626C179.219 36.4274 179.574 36.256 179.952 36.158C180.329 36.0601 180.723 36.0375 181.11 36.0916C181.496 36.1457 181.868 36.2755 182.205 36.4734C182.542 36.6714 182.836 36.9337 183.071 37.2454C183.306 37.5571 183.477 37.912 183.575 38.2899C183.673 38.6679 183.696 39.0614 183.642 39.4481C183.588 39.8347 183.458 40.2069 183.26 40.5434L172.709 58.9334C172.429 59.3663 172.051 59.728 171.607 59.9901C171.163 60.2522 170.664 60.4073 170.149 60.4434L170.148 60.4404ZM200.148 90.4404C199.625 90.442 199.111 90.303 198.66 90.0379C198.209 89.7727 197.838 89.3913 197.585 88.9334C197.363 88.6038 197.213 88.2307 197.146 87.8389C197.079 87.4472 197.096 87.0456 197.196 86.6608C197.296 86.2761 197.476 85.9169 197.725 85.607C197.974 85.2972 198.286 85.0437 198.64 84.8634L217.032 74.1574C217.734 73.7887 218.552 73.7083 219.312 73.9336C220.072 74.1588 220.714 74.6718 221.102 75.3634C221.497 76.0441 221.608 76.8532 221.411 77.6152C221.213 78.3771 220.723 79.0305 220.047 79.4334L201.652 89.9874C201.201 90.2737 200.679 90.4301 200.145 90.4394L200.148 90.4404ZM218.537 183.14C218 183.153 217.472 182.994 217.03 182.688L198.641 172.137C198.293 171.951 197.988 171.694 197.744 171.383C197.5 171.073 197.323 170.715 197.224 170.333C197.125 169.951 197.106 169.552 197.169 169.162C197.231 168.773 197.373 168.4 197.586 168.067C197.771 167.718 198.023 167.409 198.329 167.158C198.635 166.907 198.988 166.72 199.367 166.608C199.746 166.496 200.144 166.46 200.537 166.504C200.93 166.547 201.311 166.669 201.656 166.861L220.046 177.561C220.388 177.754 220.687 178.014 220.926 178.325C221.165 178.637 221.339 178.993 221.438 179.372C221.536 179.752 221.557 180.148 221.499 180.536C221.441 180.924 221.306 181.297 221.101 181.631C220.833 182.078 220.458 182.45 220.009 182.714C219.56 182.977 219.052 183.124 218.532 183.14H218.537ZM180.703 220.974C180.18 220.976 179.666 220.837 179.216 220.572C178.765 220.306 178.394 219.925 178.141 219.467L167.441 201.077C167.248 200.732 167.127 200.352 167.083 199.959C167.04 199.566 167.075 199.168 167.188 198.789C167.3 198.409 167.487 198.057 167.737 197.751C167.988 197.445 168.297 197.192 168.647 197.007C168.979 196.794 169.352 196.652 169.742 196.59C170.132 196.528 170.53 196.547 170.913 196.646C171.295 196.745 171.652 196.922 171.963 197.166C172.273 197.409 172.53 197.715 172.717 198.062L183.263 216.457C183.476 216.79 183.619 217.163 183.681 217.552C183.743 217.942 183.724 218.341 183.625 218.723C183.526 219.105 183.349 219.463 183.105 219.773C182.861 220.084 182.556 220.341 182.208 220.527C181.756 220.812 181.234 220.967 180.7 220.974H180.703ZM77.451 220.974C76.9136 220.987 76.386 220.828 75.944 220.522C75.2527 220.136 74.7393 219.495 74.513 218.736C74.2867 217.977 74.3653 217.159 74.732 216.457L85.432 198.068C85.8318 197.389 86.4852 196.896 87.2485 196.698C88.0118 196.5 88.8224 196.614 89.502 197.013C90.1816 197.413 90.6746 198.067 90.8725 198.83C91.0703 199.593 90.9568 200.404 90.557 201.083L80.006 219.473C79.7384 219.917 79.3643 220.286 78.9175 220.549C78.4708 220.811 77.9657 220.957 77.448 220.974H77.451ZM39.617 183.14C39.0941 183.142 38.5804 183.003 38.1297 182.738C37.679 182.473 37.3078 182.091 37.055 181.633C36.8329 181.304 36.6834 180.931 36.6163 180.539C36.5492 180.147 36.5661 179.746 36.6659 179.361C36.7656 178.976 36.9459 178.617 37.1949 178.307C37.4438 177.997 37.7558 177.744 38.11 177.563L56.5 166.863C57.2019 166.495 58.0199 166.414 58.78 166.64C59.5402 166.865 60.1824 167.378 60.57 168.069C60.9653 168.75 61.0762 169.559 60.8787 170.321C60.6812 171.083 60.1912 171.736 59.515 172.139L41.125 182.69C40.6724 182.977 40.1495 183.132 39.614 183.14H39.617ZM58.007 90.4404C57.4696 90.4527 56.942 90.2944 56.5 89.9884L38.11 79.4374C37.7622 79.2506 37.4568 78.9939 37.2129 78.6833C36.969 78.3728 36.792 78.0152 36.6929 77.633C36.5938 77.2508 36.5749 76.8523 36.6372 76.4624C36.6995 76.0725 36.8418 75.6997 37.055 75.3674C37.2396 75.0177 37.4923 74.7083 37.7981 74.4576C38.104 74.2069 38.4569 74.0198 38.8361 73.9075C39.2153 73.7951 39.6131 73.7597 40.0062 73.8033C40.3993 73.8469 40.7797 73.9687 41.125 74.1614L59.515 84.8614C59.8567 85.0544 60.156 85.3142 60.3951 85.6254C60.6341 85.9365 60.8081 86.2926 60.9065 86.6725C61.005 87.0523 61.0259 87.4481 60.9681 87.8362C60.9103 88.2243 60.7749 88.5968 60.57 88.9314C60.3135 89.3869 59.941 89.7664 59.4903 90.0313C59.0396 90.2962 58.5268 90.437 58.004 90.4394L58.007 90.4404ZM88.007 60.4404C87.4841 60.4418 86.9705 60.3027 86.5198 60.0376C86.0691 59.7725 85.6979 59.3911 85.445 58.9334L74.732 40.5464C74.5393 40.2011 74.4175 39.8207 74.3739 39.4276C74.3303 39.0345 74.3657 38.6367 74.4781 38.2575C74.5904 37.8783 74.7775 37.5254 75.0282 37.2195C75.2789 36.9137 75.5882 36.661 75.938 36.4764C76.2703 36.2632 76.6431 36.1209 77.033 36.0586C77.4229 35.9963 77.8214 36.0153 78.2036 36.1143C78.5858 36.2134 78.9434 36.3904 79.2539 36.6343C79.5644 36.8782 79.8212 37.1836 80.008 37.5314L90.559 55.9214C90.7723 56.2537 90.9145 56.6265 90.9769 57.0164C91.0392 57.4063 91.0202 57.8048 90.9211 58.187C90.8221 58.5692 90.645 58.9268 90.4012 59.2374C90.1573 59.5479 89.8519 59.8046 89.504 59.9914C89.0628 60.2968 88.5365 60.4549 88 60.4434L88.007 60.4404ZM129.007 119.98C128.208 119.978 127.442 119.66 126.877 119.095C126.312 118.53 125.994 117.764 125.992 116.965V79.1344C126.006 78.3445 126.33 77.5917 126.894 77.0381C127.458 76.4845 128.216 76.1743 129.007 76.1743C129.797 76.1743 130.555 76.4845 131.119 77.0381C131.683 77.5917 132.007 78.3445 132.021 79.1344V116.968C132.019 117.769 131.699 118.535 131.133 119.1C130.566 119.665 129.799 119.983 128.999 119.983L129.007 119.98ZM163.977 166.406C163.583 166.403 163.194 166.322 162.832 166.168C162.47 166.013 162.142 165.789 161.867 165.506L135.037 138.826C134.469 138.244 134.154 137.462 134.159 136.649C134.164 135.836 134.489 135.057 135.064 134.482C135.639 133.907 136.417 133.582 137.23 133.577C138.044 133.572 138.826 133.888 139.408 134.455L166.088 161.285C166.374 161.558 166.602 161.885 166.757 162.248C166.913 162.611 166.993 163.001 166.993 163.396C166.993 163.791 166.913 164.181 166.757 164.544C166.602 164.907 166.374 165.234 166.088 165.506C165.813 165.79 165.483 166.016 165.119 166.171C164.756 166.326 164.365 166.407 163.969 166.409L163.977 166.406Z" fill="#07bc0c" />
                                <path fillRule="evenodd" clipRule="evenodd" d="M128.999 143.045C126.129 143.03 123.327 142.166 120.946 140.562C118.565 138.958 116.713 136.686 115.621 134.031C114.529 131.376 114.248 128.458 114.811 125.643C115.375 122.828 116.759 120.243 118.789 118.214C120.818 116.184 123.403 114.8 126.218 114.236C129.033 113.673 131.951 113.954 134.606 115.046C137.261 116.138 139.533 117.99 141.137 120.371C142.741 122.752 143.605 125.553 143.62 128.424C143.635 130.348 143.267 132.256 142.538 134.037C141.809 135.818 140.732 137.436 139.371 138.796C138.011 140.157 136.393 141.233 134.612 141.963C132.831 142.692 130.923 143.06 128.999 143.045ZM128.999 119.983C127.315 119.998 125.672 120.512 124.28 121.46C122.888 122.408 121.808 123.748 121.177 125.31C120.546 126.872 120.393 128.586 120.736 130.235C121.079 131.884 121.904 133.395 123.106 134.575C124.307 135.756 125.832 136.553 127.487 136.867C129.142 137.181 130.853 136.997 132.403 136.339C133.954 135.681 135.274 134.577 136.198 133.168C137.121 131.759 137.606 130.108 137.591 128.424C137.593 127.302 137.371 126.191 136.938 125.156C136.505 124.121 135.87 123.183 135.07 122.397C134.27 121.61 133.32 120.992 132.278 120.577C131.235 120.162 130.121 119.96 128.999 119.982V119.983Z" fill="#00AFEF" />
                                <path fillRule="evenodd" clipRule="evenodd" d="M128.999 256.999C94.9316 256.937 62.2795 243.366 38.2043 219.263C14.129 195.159 0.596203 162.492 0.574018 128.424C0.498677 111.552 3.79304 94.8347 10.2639 79.2526C16.7348 63.6706 26.2519 49.5374 38.257 37.6821C50.1833 25.7558 64.3418 16.2954 79.9242 9.84096C95.5066 3.38651 112.208 0.0644533 129.074 0.0644531C145.94 0.064453 162.641 3.38651 178.224 9.84096C193.806 16.2954 207.965 25.7558 219.891 37.6821C231.817 49.6083 241.278 63.7669 247.732 79.3493C254.187 94.9317 257.509 111.633 257.509 128.499C257.509 145.365 254.187 162.066 247.732 177.649C241.278 193.231 231.817 207.39 219.891 219.316C207.986 231.296 193.822 240.795 178.22 247.263C162.618 253.731 145.888 257.041 128.999 256.999ZM128.999 6.02809C96.5433 6.05007 65.4231 18.9528 42.4734 41.9025C19.5237 64.8522 6.621 95.9723 6.59902 128.428C6.59902 195.956 61.466 250.974 128.999 250.974C196.532 250.974 251.545 195.956 251.545 128.428C251.545 60.9001 196.527 6.02809 128.999 6.02809Z" fill="black" />
                                <path fillRule="evenodd" clipRule="evenodd" d="M128.999 234.842C70.3641 234.842 22.7321 187.057 22.7321 128.424C22.7506 100.246 33.9525 73.2275 53.8774 53.3026C73.8023 33.3777 100.821 22.1758 128.999 22.1572C187.634 22.1572 235.417 69.7892 235.417 128.424C235.369 156.633 224.142 183.673 204.195 203.62C184.248 223.567 157.208 234.794 128.999 234.842ZM128.999 28.1872C73.8311 28.1872 28.7611 73.2562 28.7611 128.425C28.7611 183.744 73.8301 228.813 128.999 228.813C155.611 228.771 181.121 218.181 199.938 199.363C218.755 180.546 229.345 155.036 229.387 128.424C229.387 73.1052 184.318 28.1872 128.999 28.1872Z" fill="black" />
                            </svg>