<svg width="78" height="78" viewBox="0 0 78 78" fill="none" xmlns="http://www.w3.org/2000/svg">
<path d="M74.321 34.4621V60.4336C74.321 63.4626 71.8768 65.9068 68.8627 65.9068H66.1336V72.5645C66.1336 73.2995 65.3089 73.7192 64.7092 73.2844L54.7675 65.9068H36.7434C33.7294 65.9068 31.2852 63.4626 31.2852 60.4336V34.4621C31.2852 31.448 33.7294 28.989 36.7434 28.989H68.8627C71.8768 28.989 74.321 31.448 74.321 34.4621Z" fill="#A2A2F9"/>
<path d="M54.5125 28.989V42.1247C54.5125 45.5734 51.7084 48.3625 48.2746 48.3625H31.2852V46.2033H45.6954C49.1293 46.2033 51.9334 43.4142 51.9334 39.9653V28.989H54.5125Z" fill="#7979F7"/>
<path d="M70.7079 29.3188C71.2327 30.1436 71.5476 31.1332 71.5476 32.2128V58.1993C71.5476 61.2138 69.1039 63.6575 66.0894 63.6575H64.8521C64.0365 63.6575 63.3753 64.3187 63.3753 65.1343V70.3153C63.3753 70.9881 62.698 71.3114 62.0973 71.0941C61.971 71.0485 61.5781 70.9565 61.5781 70.9565L64.7099 73.2844C65.3096 73.7192 66.1343 73.2994 66.1343 72.5645V65.9068H68.8635C71.8775 65.9068 74.3217 63.4626 74.3217 60.4336V34.462C74.3217 32.0929 72.8222 30.0686 70.7079 29.3188Z" fill="#7979F7"/>
<g opacity="0.3">
<g opacity="0.6">
<path d="M49.8567 63.5819C49.8567 63.0378 49.4153 62.5964 48.8713 62.5964H44.298C43.7539 62.5964 43.3125 63.0378 43.3125 63.5819C43.3125 64.1259 43.7539 64.5673 44.298 64.5673H48.8713C49.4153 64.5673 49.8567 64.1259 49.8567 63.5819Z" fill="white"/>
</g>
<g opacity="0.6">
<path d="M41.4026 63.5819C41.4026 63.0378 40.9612 62.5964 40.4172 62.5964H40.1417C39.5977 62.5964 39.1562 63.0378 39.1562 63.5819C39.1562 64.1259 39.5977 64.5673 40.1417 64.5673H40.4172C40.9612 64.5673 41.4026 64.1259 41.4026 63.5819Z" fill="white"/>
</g>
</g>
<path d="M69.0705 37.566V57.3294C69.0705 59.159 67.586 60.6434 65.7566 60.6434H39.8452C38.0157 60.6434 36.5312 59.159 36.5312 57.3294V37.566C36.5312 35.7367 38.0157 34.2522 39.8452 34.2522H65.7566C67.586 34.2522 69.0705 35.7367 69.0705 37.566Z" fill="white"/>
<path d="M54.5103 34.2522V42.1246C54.5103 45.5733 51.7062 48.3624 48.2724 48.3624H36.5312V46.2032H45.6932C49.1271 46.2032 51.9312 43.4142 51.9312 39.9652V34.2522H54.5103Z" fill="#E4E3FF"/>
<path d="M69.0737 37.566V57.3294C69.0737 59.1589 67.5892 60.6434 65.7598 60.6434H39.8484C38.2439 60.6434 36.9093 59.5038 36.6094 57.9893C36.8943 58.0641 37.1942 58.1092 37.4941 58.1092H63.4056C65.235 58.1092 66.7195 56.6247 66.7195 54.7953V35.0319C66.7195 34.8068 66.6894 34.582 66.6445 34.3721C68.039 34.762 69.0737 36.0365 69.0737 37.566Z" fill="#E4E3FF"/>
<path d="M52.8035 10.7788V40.4209C52.8035 43.8668 50.01 46.6604 46.564 46.6604H26.0073L14.6487 55.0811C13.9757 55.5799 13.0217 55.0996 13.0217 54.2619V46.6604H9.91917C6.4732 46.6604 3.67969 43.8668 3.67969 40.4209V10.7788C3.67969 7.33282 6.4732 4.53931 9.91917 4.53931H46.564C50.01 4.53931 52.8035 7.33282 52.8035 10.7788Z" fill="#F9B938"/>
<g opacity="0.3">
<path d="M24.7781 8.66308H23.6988C23.078 8.66308 22.5742 8.15934 22.5742 7.53845C22.5742 6.91756 23.078 6.41382 23.6988 6.41382H24.7781C25.399 6.41382 25.9027 6.91756 25.9027 7.53845C25.9027 8.15934 25.399 8.66308 24.7781 8.66308Z" fill="white"/>
</g>
<g opacity="0.3">
<path d="M38.8413 8.66308H29.5309C28.91 8.66308 28.4062 8.15934 28.4062 7.53845C28.4062 6.91756 28.91 6.41382 29.5309 6.41382H38.8413C39.4622 6.41382 39.9659 6.91756 39.9659 7.53845C39.9659 8.15934 39.4622 8.66308 38.8413 8.66308Z" fill="white"/>
</g>
<g opacity="0.3">
<path d="M6.75744 36.5708C6.13655 36.5708 5.63281 36.0671 5.63281 35.4462V25.0931C5.63281 24.4722 6.13655 23.9685 6.75744 23.9685C7.37833 23.9685 7.88207 24.4722 7.88207 25.0931V35.4462C7.88207 36.0671 7.37833 36.5708 6.75744 36.5708Z" fill="white"/>
</g>
<g opacity="0.3">
<path d="M6.75744 21.7896C6.13655 21.7896 5.63281 21.2859 5.63281 20.665V19.495C5.63281 18.8741 6.13655 18.3704 6.75744 18.3704C7.37833 18.3704 7.88207 18.8741 7.88207 19.495V20.665C7.88207 21.2859 7.37833 21.7896 6.75744 21.7896Z" fill="white"/>
</g>
<path d="M52.8053 10.7774V40.4227C52.8053 43.8677 50.0125 46.6605 46.5674 46.6605H26.0091L14.6578 55.0879C13.9831 55.5826 13.0234 55.1029 13.0234 54.2631V52.2238L22.915 44.8834C23.2494 44.6353 23.6549 44.5013 24.0713 44.5013H43.9882C47.4333 44.5013 50.2262 41.7084 50.2262 38.2633V8.61822C50.2262 7.31348 49.8213 6.09897 49.1315 5.09424C51.3058 6.06895 52.8053 8.24335 52.8053 10.7774Z" fill="#ECB021"/>
<path d="M9.67969 36.8792V14.3208C9.67969 12.2314 11.3735 10.5376 13.4629 10.5376H43.0253C45.1147 10.5376 46.8085 12.2314 46.8085 14.3208V36.8792C46.8085 38.9686 45.1147 40.6624 43.0253 40.6624H13.4629C11.3735 40.6624 9.67969 38.9686 9.67969 36.8792Z" fill="white"/>
<path d="M46.8066 14.3238V36.8765C46.8066 38.9756 45.1121 40.6552 43.0278 40.6552H13.4575C11.7632 40.6552 10.3386 39.5606 9.84375 38.0161C10.0687 38.0611 10.3086 38.0759 10.5486 38.0759H40.1037C42.1881 38.0759 43.8825 36.3815 43.8825 34.2823V11.7297C43.8825 11.3398 43.8225 10.95 43.7176 10.5901C45.472 10.9199 46.8066 12.4645 46.8066 14.3238Z" fill="#E4E3FF"/>
<path d="M33.0058 28.0819C32.2491 29.2956 31.2063 30.181 29.874 30.7345L31.7057 32.7524C31.8716 32.9183 31.9545 33.1198 31.9545 33.3551C31.9681 33.5921 31.8851 33.7986 31.7057 33.9797C31.5245 34.1592 31.3095 34.2506 31.0607 34.2506C30.7966 34.2506 30.5748 34.1389 30.3954 33.9171L28.127 31.2136C27.78 31.2678 27.3652 31.2966 26.8794 31.2966C25.4235 31.2966 24.1471 30.9783 23.0518 30.3401C21.9566 29.7019 21.1101 28.8216 20.5143 27.6976C19.9167 26.5752 19.6052 25.2853 19.5781 23.8277C19.6052 22.3719 19.9167 21.0819 20.5143 19.9596C21.1101 18.8355 21.9566 17.9553 23.0518 17.3171C24.1471 16.6805 25.4235 16.3606 26.8794 16.3606C28.3352 16.3606 29.6082 16.6805 30.6967 17.3171C31.7852 17.9553 32.6317 18.8389 33.2343 19.9697C33.837 21.1006 34.1535 22.3871 34.1806 23.8277C34.1535 25.4512 33.7608 26.8698 33.0058 28.0819ZM29.7707 28.7793C30.5884 28.2799 31.213 27.6011 31.643 26.7411C32.073 25.8812 32.288 24.9095 32.288 23.8277C32.288 22.7477 32.073 21.776 31.643 20.916C31.213 20.0561 30.5884 19.3772 29.7707 18.8779C28.9531 18.3785 27.9882 18.1296 26.8794 18.1296C25.7553 18.1296 24.7887 18.3785 23.9778 18.8779C23.167 19.3772 22.5457 20.0561 22.1157 20.916C21.6857 21.776 21.4707 22.7477 21.4707 23.8277C21.4707 24.9095 21.6857 25.8812 22.1157 26.7411C22.5457 27.6011 23.167 28.2799 23.9778 28.7793C24.7887 29.2787 25.7553 29.5275 26.8794 29.5275C27.9882 29.5275 28.9531 29.2787 29.7707 28.7793Z" fill="#474646"/>
<path d="M31.0607 34.6186C30.6885 34.6186 30.3593 34.4562 30.1093 34.1494L27.9765 31.6062C27.6516 31.645 27.2837 31.6644 26.8799 31.6644C25.3636 31.6644 24.0141 31.326 22.8672 30.6577C21.716 29.9872 20.8149 29.0494 20.1897 27.8702C19.5674 26.7018 19.2382 25.3436 19.2109 23.8345C19.2382 22.3133 19.5674 20.9558 20.1897 19.7867C20.8149 18.6089 21.716 17.6704 22.8672 16.9992C24.017 16.3309 25.3679 15.9924 26.8799 15.9924C28.3918 15.9924 29.7385 16.3309 30.8825 16.9992C32.0279 17.6718 32.9276 18.6132 33.5586 19.7967C34.1866 20.9752 34.52 22.3291 34.5488 23.8209C34.52 25.5175 34.1061 27.0122 33.3171 28.2769C32.6143 29.4066 31.6629 30.2739 30.4844 30.8603L31.9791 32.5052C32.199 32.7265 32.3226 33.0248 32.3226 33.3553C32.3412 33.6787 32.222 33.9826 31.9676 34.2392C31.7161 34.4878 31.4028 34.6186 31.0607 34.6186ZM28.2754 30.8186L30.677 33.6808C30.9069 33.9618 31.2202 33.9431 31.4473 33.7189C31.5508 33.614 31.5939 33.5077 31.5867 33.3754C31.5867 33.2181 31.5422 33.1088 31.4459 33.0118L29.2498 30.5952L29.7327 30.3947C30.9845 29.8744 31.9805 29.0315 32.6934 27.8875C33.4105 26.7377 33.7871 25.3695 33.8129 23.8216C33.7871 22.4606 33.4824 21.2181 32.9089 20.1431C32.3427 19.0803 31.5364 18.2366 30.5102 17.6344C29.4812 17.033 28.2596 16.7283 26.8799 16.7283C25.4987 16.7283 24.2728 17.0337 23.238 17.6352C22.2061 18.2359 21.3998 19.0767 20.8393 20.1323C20.2716 21.198 19.9712 22.444 19.9468 23.8345C19.9712 25.2135 20.2716 26.4596 20.8393 27.5246C21.3998 28.5816 22.2075 29.4217 23.238 30.0224C24.2699 30.6239 25.4958 30.9286 26.8799 30.9286C27.3355 30.9286 27.7364 30.902 28.0713 30.8503L28.2754 30.8186ZM26.8799 29.8952C25.6913 29.8952 24.6493 29.625 23.7856 29.0926C22.9161 28.5572 22.2434 27.8214 21.7864 26.9059C21.3323 25.9968 21.1023 24.9613 21.1023 23.8281C21.1023 22.6948 21.3323 21.6593 21.7864 20.7517C22.2449 19.8355 22.9161 19.0997 23.7856 18.5643C24.6493 18.0318 25.6913 17.7616 26.8799 17.7616C28.0541 17.7616 29.0917 18.0311 29.9627 18.5636C30.8379 19.099 31.5134 19.8348 31.9719 20.7517C32.426 21.6593 32.656 22.6948 32.656 23.8281C32.656 24.9613 32.426 25.9968 31.9719 26.9059C31.5149 27.8221 30.8379 28.5579 29.9641 29.0933C29.0932 29.6258 28.0541 29.8952 26.8799 29.8952ZM26.8799 18.4975C25.8293 18.4975 24.9181 18.731 24.1707 19.1909C23.4205 19.653 22.8399 20.289 22.4446 21.0809C22.0422 21.8857 21.8381 22.8098 21.8381 23.8281C21.8381 24.8463 22.0422 25.7712 22.4446 26.5767C22.8399 27.3679 23.4205 28.0039 24.1707 28.4659C24.9181 28.9258 25.8293 29.1594 26.8799 29.1594C27.9175 29.1594 28.8258 28.9258 29.5804 28.4652C30.3349 28.0032 30.9184 27.3679 31.3136 26.5767C31.7161 25.7712 31.9201 24.8463 31.9201 23.8281C31.9201 22.8098 31.7161 21.8857 31.3136 21.0809C30.9184 20.289 30.3349 19.6537 29.5789 19.1917C28.8258 18.731 27.9175 18.4975 26.8799 18.4975Z" fill="#474646"/>
<path d="M62.5396 53.4214C62.5396 53.6498 62.4635 53.8416 62.3141 53.9983C62.1633 54.1535 61.9685 54.2311 61.7298 54.2311C61.5614 54.2311 61.4077 54.1872 61.27 54.0964C61.1324 54.0071 61.0269 53.8841 60.9552 53.7274L59.7852 50.9202H53.6685L52.4985 53.7274C52.4267 53.8841 52.3213 54.0071 52.1837 54.0964C52.046 54.1872 51.8923 54.2311 51.7239 54.2311C51.4837 54.2311 51.2889 54.1535 51.1396 53.9983C50.9902 53.8416 50.9141 53.6498 50.9141 53.4214C50.9141 53.3262 50.9448 53.2061 51.0049 53.0626L55.5927 42.2292C55.6893 42.014 55.8241 41.8368 55.9983 41.6992C56.1726 41.5615 56.3849 41.4927 56.6368 41.4927H56.8169C57.0688 41.4927 57.2811 41.5615 57.4554 41.6992C57.6296 41.8368 57.7643 42.014 57.861 42.2292L62.4488 53.0626C62.5089 53.2061 62.5396 53.3262 62.5396 53.4214ZM56.7276 43.5794L54.2982 49.428H59.1555L56.7276 43.5794Z" fill="#474646"/>
<path d="M61.7298 54.5993C61.4869 54.5993 61.2641 54.5332 61.0672 54.4031C60.8732 54.2781 60.7223 54.1013 60.6202 53.8807L59.5395 51.2879H53.9142L52.8378 53.8692C52.7314 54.1013 52.5805 54.2781 52.3836 54.4052C51.9194 54.7114 51.2468 54.6424 50.8746 54.2536C50.6561 54.0258 50.5469 53.7463 50.5469 53.4215C50.5469 53.2742 50.5857 53.1103 50.6662 52.9199L55.2537 42.0855C55.3773 41.8103 55.5498 41.5854 55.7697 41.4108C56.0097 41.221 56.3014 41.1248 56.6363 41.1248H56.8174C57.1523 41.1248 57.444 41.221 57.684 41.41C57.9039 41.5854 58.0764 41.8103 58.1971 42.0791L62.7876 52.9192C62.868 53.1125 62.9083 53.277 62.9083 53.4215C62.9083 53.7456 62.7976 54.0251 62.5806 54.2522C62.3593 54.48 62.0661 54.5993 61.7298 54.5993ZM53.4227 50.5521H60.031L61.2943 53.586C61.3317 53.6665 61.3906 53.7362 61.4696 53.7872C61.5487 53.8397 61.6306 53.8634 61.7298 53.8634C61.9123 53.8634 62 53.7944 62.0503 53.742C62.1336 53.6558 62.1724 53.553 62.1724 53.4215C62.1724 53.4107 62.1696 53.3482 62.1092 53.2059L57.5216 42.373C57.4526 42.217 57.3549 42.0884 57.227 41.9871C57.1192 41.9023 56.9856 41.8606 56.8174 41.8606H56.6363C56.4682 41.8606 56.3345 41.9023 56.2267 41.9878C56.0988 42.0884 56.0011 42.217 55.9292 42.3794L51.3445 53.2066C51.287 53.341 51.2827 53.405 51.2827 53.4215C51.2827 53.5544 51.3215 53.6572 51.4049 53.7449C51.4538 53.7952 51.5414 53.8634 51.7239 53.8634C51.8231 53.8634 51.905 53.8397 51.9812 53.7894C52.0631 53.7362 52.1221 53.6665 52.1637 53.5745L53.4227 50.5521ZM59.7062 49.7961H53.7461L56.7283 42.6202L59.7062 49.7961ZM54.8499 49.0603H58.6053L56.7283 44.5388L54.8499 49.0603Z" fill="#474646"/>
</svg>
