<svg width="24" height="24" viewBox="0 0 24 24" fill="none" xmlns="http://www.w3.org/2000/svg">
  <!-- Circle Background -->
  <circle cx="12" cy="12" r="10" fill="#FE893E" opacity="0.4" />
  <!-- Question Mark -->
  <path d="M12 6C10.07 6 8.5 7.57 8.5 9.5C8.5 10.28 9.22 11 10 11H11C12.1 11 13 11.9 13 13C13 14.1 12.1 15 11 15H10C9.45 15 9 15.45 9 16C9 16.55 9.45 17 10 17H11C13.21 17 15 15.21 15 13C15 11.34 13.66 10 12 10H11C10.45 10 10 9.55 10 9C10 8.17 10.67 7.5 11.5 7.5C12.33 7.5 13 8.17 13 9H15C15 7.34 13.66 6 12 6Z" fill="#FE893E" />
  <!-- Dot -->
  <circle cx="12" cy="18" r="1" fill="#FE893E" />
</svg>
